<?xml version="1.0" standalone="no"?>
<!DOCTYPE svg PUBLIC "-//W3C//DTD SVG 20010904//EN"
 "http://www.w3.org/TR/2001/REC-SVG-20010904/DTD/svg10.dtd">
<svg version="1.0" xmlns="http://www.w3.org/2000/svg"
 width="274.000000pt" height="75.000000pt" viewBox="0 0 274.000000 75.000000"
 preserveAspectRatio="xMidYMid meet">

<g transform="translate(0.000000,75.000000) scale(0.100000,-0.100000)"
fill="#000000" stroke="none">
<path d="M104 621 c-90 -55 -83 -220 10 -251 32 -10 42 -9 83 11 26 12 41 25
35 27 -7 2 -19 -1 -27 -8 -21 -18 -73 -15 -95 5 -47 43 -50 146 -5 191 39 39
115 27 115 -18 0 -16 3 -19 11 -11 6 6 9 23 5 36 -10 40 -80 50 -132 18z"/>
<path d="M334 631 c-78 -33 -99 -199 -31 -246 25 -17 89 -20 119 -4 25 14 57
84 58 127 0 38 -20 92 -43 110 -20 17 -77 24 -103 13z m80 -30 c41 -46 39
-168 -4 -203 -28 -23 -52 -23 -81 1 -20 16 -24 30 -27 92 -3 64 -1 78 18 102
26 32 69 36 94 8z"/>
<path d="M543 632 c-24 -2 -43 -7 -43 -13 0 -5 7 -9 15 -9 13 0 15 -20 15
-120 0 -100 3 -120 15 -120 12 0 15 19 15 109 0 60 3 116 6 125 7 19 45 21 62
4 30 -30 3 -98 -39 -98 -24 0 -24 -2 7 -53 39 -62 65 -87 90 -87 30 0 40 18
12 22 -12 2 -36 24 -57 51 l-34 49 31 25 c25 19 32 32 32 58 0 18 -6 37 -12
42 -17 13 -63 19 -115 15z"/>
<path d="M763 632 c-24 -2 -43 -7 -43 -13 0 -5 7 -9 15 -9 13 0 15 -20 15
-121 0 -92 3 -120 13 -117 8 3 13 40 15 126 l3 122 27 0 c37 0 52 -17 52 -56
0 -37 -22 -64 -51 -64 -10 0 -19 -4 -19 -10 0 -22 76 4 90 30 14 26 12 86 -2
97 -17 13 -63 19 -115 15z"/>
<path d="M979 625 c-36 -20 -59 -73 -59 -138 0 -45 5 -61 26 -86 45 -54 134
-39 169 29 18 35 20 119 3 155 -22 49 -88 68 -139 40z m81 -15 c34 -18 52
-117 31 -173 -33 -87 -125 -67 -138 31 -14 108 39 179 107 142z"/>
<path d="M1283 623 c-16 -6 -19 -243 -3 -243 6 0 10 26 10 59 0 57 1 60 28 64
l27 4 -28 2 c-27 1 -27 2 -25 56 l2 55 43 0 c36 0 45 -4 53 -22 8 -22 9 -22 9
5 1 26 -1 27 -51 26 -29 0 -59 -3 -65 -6z"/>
<path d="M1468 613 c-9 -10 -19 -27 -22 -39 -8 -25 2 -56 15 -48 5 3 9 0 9 -6
0 -14 61 -50 73 -43 6 3 7 1 3 -5 -3 -6 -2 -13 3 -16 10 -7 3 -44 -13 -66 -6
-8 -1 -6 12 4 41 35 19 103 -41 122 -52 16 -65 70 -24 99 12 8 17 15 11 15 -6
0 -18 -8 -26 -17z"/>
<path d="M1543 619 c9 -5 17 -20 17 -31 0 -12 3 -19 6 -15 12 12 -6 57 -24 57
-16 -1 -16 -1 1 -11z"/>
<path d="M1603 623 c-7 -3 -13 -12 -13 -21 1 -15 2 -15 11 1 6 10 22 17 39 17
l30 0 0 -127 c0 -161 18 -155 22 7 l3 115 43 -3 c24 -2 42 1 42 7 0 10 -152
14 -177 4z"/>
<path d="M1820 620 c-8 -5 -10 -10 -5 -10 6 0 10 -15 8 -32 -9 -113 -8 -206 2
-202 6 3 11 15 11 27 1 77 5 96 22 100 16 4 16 5 0 6 -15 1 -18 11 -18 57 l0
56 50 -4 c28 -1 50 0 50 5 0 10 -102 8 -120 -3z"/>
<path d="M1976 614 c-3 -9 -6 -23 -5 -32 1 -10 4 -6 8 8 5 19 16 27 41 31 l35
6 -36 2 c-25 1 -39 -4 -43 -15z"/>
<path d="M2065 618 c-2 -7 -6 -66 -10 -131 -4 -82 -3 -117 5 -112 5 3 10 25
10 49 0 24 3 78 7 120 l6 77 37 -6 c23 -4 41 -2 45 4 4 7 -11 11 -45 11 -32 0
-52 -5 -55 -12z"/>
<path d="M2192 620 c14 -9 15 -25 11 -132 -4 -87 -2 -120 5 -113 9 8 16 161
13 243 -1 6 -11 12 -23 12 -20 -1 -21 -2 -6 -10z"/>
<path d="M2319 599 c-15 -17 -31 -46 -35 -65 -8 -44 1 -105 18 -116 7 -4 9 -8
4 -8 -6 0 -1 -6 9 -14 11 -8 23 -12 27 -10 5 3 8 0 8 -5 0 -19 67 -12 91 10
l24 21 -25 -16 c-37 -24 -73 -20 -103 12 -55 57 -41 177 23 209 20 10 21 13 7
13 -11 0 -32 -14 -48 -31z"/>
<path d="M2427 620 c12 -5 26 -17 32 -27 8 -14 10 -15 11 -2 0 21 -20 39 -44
38 -20 0 -20 -1 1 -9z"/>
<path d="M2564 554 c-20 -42 -33 -78 -30 -81 3 -3 8 3 12 13 4 10 18 44 32 74
l25 55 8 -40 c4 -22 9 -53 12 -70 13 -71 20 -95 30 -95 6 0 7 -3 4 -7 -9 -9
12 -33 30 -33 10 0 9 7 -7 28 -14 20 -60 192 -60 228 0 2 -5 4 -11 4 -6 0 -26
-34 -45 -76z"/>
<path d="M1358 503 c7 -3 16 -2 19 1 4 3 -2 6 -13 5 -11 0 -14 -3 -6 -6z"/>
<path d="M2503 414 c-12 -25 -16 -43 -10 -41 10 3 40 77 34 83 -2 2 -13 -17
-24 -42z"/>
<path d="M1945 408 c-8 -19 -17 -23 -50 -21 -33 1 -36 0 -15 -7 14 -4 33 -8
42 -9 18 -1 42 32 36 50 -2 5 -8 -1 -13 -13z"/>
<path d="M1392 394 c-9 -10 -27 -13 -55 -9 -35 4 -37 3 -12 -4 48 -14 72 -12
79 5 9 22 4 25 -12 8z"/>
<path d="M1443 390 c2 -10 17 -15 43 -16 37 -1 38 -1 4 3 -19 3 -39 10 -43 16
-6 8 -7 7 -4 -3z"/>
</g>
</svg>
